<svg width="108" height="100" viewBox="0 0 108 100" fill="none" xmlns="http://www.w3.org/2000/svg">
<g clip-path="url(#clip0_10_29)">
<g filter="url(#filter0_d_10_29)">
<path d="M20 25C20 19.4772 24.4772 15 30 15H78C83.5228 15 88 19.4772 88 25V60C88 65.5228 83.5228 70 78 70H66L55.5 75L44 70H30C24.4772 70 20 65.5228 20 60V25Z" fill="black"/>
</g>
<path d="M61.2797 44.5709L61.2815 44.5736C61.8551 45.4508 62.4542 46.2948 63.079 47.1053C63.7083 47.9216 64.3965 48.7034 65.1435 49.4506C66.0972 50.4374 66.9932 51.4651 67.8316 52.5336C68.6113 53.5273 69 54.6599 69 55.95C69 57.2687 68.5897 58.3938 67.7704 59.3496C66.9667 60.2872 65.9561 60.75 64.7 60.75C62.9279 60.75 61.1726 60.6023 59.4337 60.3071C57.6393 60.0023 55.8279 59.85 54 59.85C52.1721 59.85 50.3607 60.0023 48.5663 60.3071C46.8274 60.6023 45.0721 60.75 43.3 60.75C42.0439 60.75 41.0333 60.2872 40.2296 59.3496C39.4103 58.3938 39 57.2687 39 55.95C39 54.6599 39.3887 53.5273 40.1684 52.5336C41.0068 51.4651 41.9028 50.4374 42.8566 49.4505C43.6035 48.7033 44.2997 47.9136 44.9451 47.0814C45.5865 46.2544 46.1941 45.402 46.7679 44.5244C47.7185 43.0823 48.7835 41.7389 49.963 40.4939C51.0693 39.3261 52.405 38.75 54 38.75C55.5952 38.75 56.9406 39.3264 58.0644 40.4964C59.2584 41.7395 60.3302 43.0974 61.2797 44.5709ZM38.5 40.25C37.361 40.25 36.423 39.8659 35.6536 39.0964C34.8841 38.327 34.5 37.389 34.5 36.25C34.5 35.111 34.8841 34.173 35.6536 33.4036C36.423 32.6341 37.361 32.25 38.5 32.25C39.639 32.25 40.577 32.6341 41.3464 33.4036C42.1159 34.173 42.5 35.111 42.5 36.25C42.5 37.389 42.1159 38.327 41.3464 39.0964C40.577 39.8659 39.639 40.25 38.5 40.25ZM47.75 31.75C46.611 31.75 45.673 31.3659 44.9036 30.5964C44.1341 29.827 43.75 28.889 43.75 27.75C43.75 26.611 44.1341 25.673 44.9036 24.9036C45.673 24.1341 46.611 23.75 47.75 23.75C48.889 23.75 49.827 24.1341 50.5964 24.9036C51.3659 25.673 51.75 26.611 51.75 27.75C51.75 28.889 51.3659 29.827 50.5964 30.5964C49.827 31.3659 48.889 31.75 47.75 31.75ZM60.25 31.75C59.111 31.75 58.173 31.3659 57.4036 30.5964C56.6341 29.827 56.25 28.889 56.25 27.75C56.25 26.611 56.6341 25.673 57.4036 24.9036C58.173 24.1341 59.111 23.75 60.25 23.75C61.389 23.75 62.327 24.1341 63.0964 24.9036C63.8659 25.673 64.25 26.611 64.25 27.75C64.25 28.889 63.8659 29.827 63.0964 30.5964C62.327 31.3659 61.389 31.75 60.25 31.75ZM69.5 40.25C68.361 40.25 67.423 39.8659 66.6536 39.0964C65.8841 38.327 65.5 37.389 65.5 36.25C65.5 35.111 65.8841 34.173 66.6536 33.4036C67.423 32.6341 68.361 32.25 69.5 32.25C70.639 32.25 71.577 32.6341 72.3464 33.4036C73.1159 34.173 73.5 35.111 73.5 36.25C73.5 37.389 73.1159 38.327 72.3464 39.0964C71.577 39.8659 70.639 40.25 69.5 40.25Z" fill="#EBB228" stroke="black"/>
<g filter="url(#filter1_d_10_29)">
<path d="M53 53.875H55V51.8958H57.5V50.3125H55V48.3333H53V50.3125H50.5V51.8958H53V53.875ZM54 59.3969C51.6667 58.9351 49.75 57.863 48.25 56.1807C46.75 54.4984 46 52.6545 46 50.649V45.9385L54 43.5635L62 45.9385V50.649C62 52.6545 61.25 54.4984 59.75 56.1807C58.25 57.863 56.3333 58.9351 54 59.3969ZM54 58.1698C55.9167 57.6684 57.4792 56.7217 58.6875 55.3297C59.8958 53.9377 60.5 52.3774 60.5 50.649V46.7698L54 44.8302L47.5 46.7698V50.649C47.5 52.3774 48.1042 53.9377 49.3125 55.3297C50.5208 56.7217 52.0833 57.6684 54 58.1698Z" fill="black"/>
</g>
</g>
<defs>
<filter id="filter0_d_10_29" x="0" y="0" width="108" height="100" filterUnits="userSpaceOnUse" color-interpolation-filters="sRGB">
<feFlood flood-opacity="0" result="BackgroundImageFix"/>
<feColorMatrix in="SourceAlpha" type="matrix" values="0 0 0 0 0 0 0 0 0 0 0 0 0 0 0 0 0 0 127 0" result="hardAlpha"/>
<feOffset dy="5"/>
<feGaussianBlur stdDeviation="10"/>
<feComposite in2="hardAlpha" operator="out"/>
<feColorMatrix type="matrix" values="0 0 0 0 0 0 0 0 0 0 0 0 0 0 0 0 0 0 0.72 0"/>
<feBlend mode="normal" in2="BackgroundImageFix" result="effect1_dropShadow_10_29"/>
<feBlend mode="normal" in="SourceGraphic" in2="effect1_dropShadow_10_29" result="shape"/>
</filter>
<filter id="filter1_d_10_29" x="38" y="42" width="32" height="27" filterUnits="userSpaceOnUse" color-interpolation-filters="sRGB">
<feFlood flood-opacity="0" result="BackgroundImageFix"/>
<feColorMatrix in="SourceAlpha" type="matrix" values="0 0 0 0 0 0 0 0 0 0 0 0 0 0 0 0 0 0 127 0" result="hardAlpha"/>
<feOffset dy="4"/>
<feGaussianBlur stdDeviation="2"/>
<feComposite in2="hardAlpha" operator="out"/>
<feColorMatrix type="matrix" values="0 0 0 0 0 0 0 0 0 0 0 0 0 0 0 0 0 0 0.25 0"/>
<feBlend mode="normal" in2="BackgroundImageFix" result="effect1_dropShadow_10_29"/>
<feBlend mode="normal" in="SourceGraphic" in2="effect1_dropShadow_10_29" result="shape"/>
</filter>
<clipPath id="clip0_10_29">
<rect width="108" height="100" fill="white"/>
</clipPath>
</defs>
</svg>
